<svg width="459" height="409" viewBox="0 0 459 409" fill="none" xmlns="http://www.w3.org/2000/svg">
<path d="M520.481 -80.6163L471.903 147.992L407.881 133.885L407.228 133.743C392.065 130.521 376.307 131.46 361.617 136.47L343.983 142.49L331.576 120.659C330.575 118.908 329.39 117.258 328.042 115.749C322.947 110.038 315.934 106.659 308.299 106.227C300.661 105.794 293.309 108.36 287.601 113.453L274.41 125.221L271.31 71.9079C270.769 62.5403 265.151 54.2565 256.63 50.29C250.463 47.4318 243.552 47.1279 237.161 49.4614C230.771 51.7918 225.677 56.4727 222.81 62.6347L198.863 114.111L198.501 78.1093C198.392 67.7666 192.689 58.2551 183.621 53.2943C176.904 49.6134 169.168 48.7698 161.827 50.9178C154.484 53.0621 148.416 57.9328 144.739 64.6416L129.149 93.0944L126.981 73.4812C125.615 61.1804 116.568 51.1926 104.462 48.6206L87.6892 45.0572C79.0943 43.2311 70.6448 48.7146 68.8188 57.3095C66.9928 65.9043 72.4831 74.3494 81.078 76.1754L95.6 79.2606L101.951 136.686C103.115 147.135 112.57 154.712 123.038 153.554C129.219 152.87 134.693 149.2 137.676 143.752L166.8 90.6049L167.606 170.62C167.659 175.717 169.69 180.491 173.336 184.062C175.956 186.632 179.189 188.353 182.697 189.099C184.06 189.388 185.471 189.532 186.899 189.517C194.197 189.441 200.912 185.121 204.015 178.482L241.007 98.9684L243.408 140.21C243.798 146.996 246.815 153.224 251.893 157.747C256.971 162.264 263.507 164.534 270.294 164.148C276.006 163.82 281.504 161.537 285.775 157.729L305.855 139.811L316.314 158.207C323.865 171.47 339.817 177.52 354.264 172.595L371.898 166.578C381.278 163.377 391.192 162.79 401.03 164.952L465.291 179.11L405.481 460.676L-73.3478 358.947L41.6519 -182.345L520.481 -80.6163Z" fill="#EBEBEB"/>
</svg>
